<svg width="39" height="37" viewBox="0 0 39 37" fill="none" xmlns="http://www.w3.org/2000/svg">
<path d="M30.125 20.4583H21.625V28.2917H17.375V20.4583H8.875V16.5417H17.375V8.70833H21.625V16.5417H30.125V20.4583ZM34.375 0.875H4.625C2.26625 0.875 0.375 2.61792 0.375 4.79167V32.2083C0.375 33.2471 0.822766 34.2433 1.6198 34.9778C2.41683 35.7124 3.49783 36.125 4.625 36.125H34.375C35.5022 36.125 36.5832 35.7124 37.3802 34.9778C38.1772 34.2433 38.625 33.2471 38.625 32.2083V4.79167C38.625 3.7529 38.1772 2.75668 37.3802 2.02216C36.5832 1.28765 35.5022 0.875 34.375 0.875Z" fill="#1633FF"/>
</svg>
